# xmcd
#
# Track frame offsets:
#	150
#	16822
#	33507
#	47682
#	67490
#	81560
#	97200
#	109920
#	127317
#	144067
#	160980
#	178650
#	193662
#	210247
#	226580
#	246480
#	260602
#
# Disc length: 3697
#
# Revision: 3
# Processed by: cddbd v1.5.1PL0 Copyright (c) Steve Scherf et al.
# Submitted via: VisiTrax 2.9.5.180 - For more info visit www.synapsa.com
# Normalized: r2:DSETVAR1
#
DISCID=fa0e6f11
DTITLE=Various Artist - CDX 325 August 2003
DYEAR=2003
DGENRE=Country
TTITLE0=Steve Wariner and Lee Roy Parnell - Carmelita
TTITLE1=John Michael Montgomery - Cool
TTITLE2=Kerosene Brothers - Ellie Schaffer
TTITLE3=Eagles - Hole in the world
TTITLE4=Charley Pride - Hook in my heart
TTITLE5=Reba McEntire - I'm gonna take that mountain
TTITLE6=June Carter Cash - Keep on the sunny side
TTITLE7=Ken Mellons - Paint me a Birmingham
TTITLE8=Jeff Bates - Rainbow man
TTITLE9=Jimmy Fortune - What money can't buy
TTITLE10=Nitty Gritty Dirt Band - Workin' man
TTITLE11=Brooks and Dunn - You can't take the honky tonk out of the girl
TTITLE12=Brian McComas - You're in my head
TTITLE13=Stephnanie Urbina Jones - I am home
TTITLE14=Harryman Smith - Just the way you are
TTITLE15=Destrys - Looking out for number one
TTITLE16=Shelley Lane - No time like now
EXTD=
EXTT0=
EXTT1=
EXTT2=
EXTT3=
EXTT4=
EXTT5=
EXTT6=
EXTT7=
EXTT8=
EXTT9=
EXTT10=
EXTT11=
EXTT12=
EXTT13=
EXTT14=
EXTT15=
EXTT16=
PLAYORDER=
